# Blender 3.6.5
# www.blender.org
mtllib Triangle.mtl
o Cube
v 0.036483 0.967338 -0.036483
v 1.000000 -1.000000 -1.000000
v 1.000000 -1.000000 1.000000
v 0.005876 0.961532 -0.033871
v -1.000000 -1.000000 -1.000000
v -1.000000 -1.000000 1.000000
vn 0.5701 0.5839 0.5780
vn -0.8898 0.4563 -0.0000
vn -0.0000 -1.0000 -0.0000
vn -0.0024 0.4409 -0.8976
vt 0.375000 0.500000
vt 0.625000 0.500000
vt 0.875000 0.500000
vt 0.375000 1.000000
vt 0.375000 0.750000
vt 0.375000 0.000000
vt 0.625000 0.250000
vt 0.375000 0.250000
vt 0.125000 0.500000
vt 0.125000 0.750000
s 0
usemtl Material
f 2/1/1 1/2/1 4/3/1 6/4/1 3/5/1
f 6/6/2 4/7/2 5/8/2
f 5/9/3 2/1/3 3/5/3 6/10/3
f 5/8/4 4/7/4 1/2/4 2/1/4
